HIERARCHY
ROOT Hips
{
	OFFSET 0.00 0.00 0.00
	CHANNELS 6 Xposition Yposition Zposition Xrotation Yrotation Zrotation
	JOINT RightUpLeg
	{
		OFFSET -3.76699 0.00000 0.00000
		CHANNELS 3 Xrotation Yrotation Zrotation
		JOINT RightLeg
		{
			OFFSET 0.00000 -18.01768 0.00000
			CHANNELS 3 Xrotation Yrotation Zrotation
			JOINT RightFoot
			{
				OFFSET 0.00000 -16.88108 0.00000
				CHANNELS 3 Xrotation Yrotation Zrotation
				JOINT RightToeBase
				{
					OFFSET 0.00000 -1.49359 5.57418
					CHANNELS 3 Xrotation Yrotation Zrotation
					End Site
					{
						OFFSET 0.00000 0.00000 2.95275
					}
				}
			}
		}
	}
	JOINT LeftUpLeg
	{
		OFFSET 3.76699 0.00000 0.00000
		CHANNELS 3 Xrotation Yrotation Zrotation
		JOINT LeftLeg
		{
			OFFSET 0.00000 -18.01768 0.00000
			CHANNELS 3 Xrotation Yrotation Zrotation
			JOINT LeftFoot
			{
				OFFSET 0.00000 -16.88108 0.00000
				CHANNELS 3 Xrotation Yrotation Zrotation
				JOINT LeftToeBase
				{
					OFFSET 0.00000 -1.49359 5.57418
					CHANNELS 3 Xrotation Yrotation Zrotation
					End Site
					{
						OFFSET 0.00000 0.00000 2.95275
					}
				}
			}
		}
	}
	JOINT Spine
	{
		OFFSET 0.00000 7.77970 0.00000
		CHANNELS 3 Xrotation Yrotation Zrotation
		JOINT RightShoulder
		{
			OFFSET 0.00000 10.94176 0.00000
			CHANNELS 3 Xrotation Yrotation Zrotation
			JOINT RightArm
			{
				OFFSET -7.70894 0.00000 0.00000
				CHANNELS 3 Xrotation Yrotation Zrotation
				JOINT RightForeArm
				{
					OFFSET -11.52135 0.00000 0.00000
					CHANNELS 3 Yrotation Zrotation Xrotation
					JOINT RightHand
					{
						OFFSET -10.17590 0.00000 0.00000
						CHANNELS 3 Xrotation Yrotation Zrotation
						End Site
						{
							OFFSET -3.93700 0.00000 0.00000
						}
						JOINT RightHandThumb1
						{
							OFFSET 0.00000 0.00000 0.00000
							CHANNELS 3 Xrotation Zrotation Yrotation
							End Site
							{
								OFFSET 0.00000 0.00000 3.93700
							}
						}
					}
				}
			}
		}
		JOINT LeftShoulder
		{
			OFFSET 0.00000 10.94176 0.00000
			CHANNELS 3 Xrotation Yrotation Zrotation
			JOINT LeftArm
			{
				OFFSET 7.70894 0.00000 0.00000
				CHANNELS 3 Xrotation Yrotation Zrotation
				JOINT LeftForeArm
				{
					OFFSET 11.52135 0.00000 0.00000
					CHANNELS 3 Yrotation Zrotation Xrotation
					JOINT LeftHand
					{
						OFFSET 10.17590 0.00000 0.00000
						CHANNELS 3 Xrotation Yrotation Zrotation
						End Site
						{
							OFFSET 3.93700 0.00000 0.00000
						}
						JOINT LeftHandThumb1
						{
							OFFSET 0.00000 0.00000 0.00000
							CHANNELS 3 Xrotation Zrotation Yrotation
							End Site
							{
								OFFSET 0.00000 0.00000 3.93700
							}
						}
					}
				}
			}
		}
		JOINT Head
		{
			OFFSET 0.00000 16.64604 0.00000
			CHANNELS 3 Xrotation Yrotation Zrotation
			End Site
			{
				OFFSET 0.00000 4.52755 0.00000
			}
		}
	}
}
MOTION
Frames:	9
Frame Time: 0.008333
-3.5490 36.8909 5.2529 -3.9994 4.6274 -2.0026 9.3456 -3.8742 -5.4095 -2.0361 0.0000 -0.0000 -2.8757 -15.2195 17.3707 9.1758 -0.0000 -0.0000 10.1859 7.0985 8.8593 -4.9638 0.0000 -0.0000 -5.7028 17.4181 -15.0121 16.1633 -0.0000 -0.0000 9.5388 3.7697 2.9977 28.7362 -34.7709 -13.1177 -61.0782 -3.9541 32.8154 5.4867 -0.0000 33.6825 2.0014 -17.5687 6.6037 33.1476 -0.0000 -26.2537 9.6839 11.1491 27.1255 -29.7667 7.6278 -28.5290 -19.2398 -0.0000 -6.8508 -0.1646 -1.3738 -6.8324 32.8623 0.0000 24.3270 2.3470 -14.0714 -2.3882
-3.5473 36.8913 5.2508 -3.9962 4.6232 -1.9967 9.3314 -3.8681 -5.4218 -2.0206 0.0000 -0.0000 -2.8753 -15.2163 17.3951 9.1572 -0.0000 -0.0000 10.1812 7.0927 8.8506 -4.9609 0.0000 -0.0000 -5.7021 17.4103 -14.9852 16.1417 -0.0000 -0.0000 9.5344 3.7698 2.9927 28.7326 -34.7772 -13.1242 -61.0916 -3.9581 32.8107 5.4997 0.0000 33.7272 2.0142 -17.5663 6.6464 33.1476 -0.0000 -26.2537 9.6696 11.1229 27.1274 -29.7472 7.6430 -28.5322 -19.2620 -0.0000 -6.8534 -0.1651 -1.3843 -6.8035 32.8623 0.0000 24.3270 2.3704 -14.0725 -2.3962
-3.5465 36.8912 5.2491 -3.9960 4.6262 -1.9959 9.3268 -3.8809 -5.4234 -2.0169 0.0000 -0.0000 -2.8798 -15.2043 17.3973 9.1670 -0.0000 -0.0000 10.1821 7.0782 8.8495 -4.9664 0.0000 -0.0000 -5.6978 17.4347 -15.0157 16.1633 -0.0000 -0.0000 9.5369 3.7590 2.9939 28.7124 -34.7822 -13.1400 -61.0902 -3.9545 32.8098 5.5054 0.0000 33.7492 2.0243 -17.5635 6.6806 33.1476 -0.0000 -26.2537 9.6631 11.1274 27.1239 -29.7532 7.6317 -28.5399 -19.2730 0.0000 -6.8539 -0.1644 -1.3753 -6.8166 32.8623 0.0000 24.3270 2.3881 -14.0123 -2.3809
-3.5453 36.8912 5.2481 -3.9964 4.6239 -1.9921 9.3173 -3.8908 -5.4299 -2.0009 0.0000 -0.0000 -2.8899 -15.1930 17.4021 9.1866 -0.0000 -0.0000 10.1858 7.0681 8.8436 -4.9687 0.0000 -0.0000 -5.6980 17.4400 -15.0041 16.1567 -0.0000 -0.0000 9.5360 3.7525 2.9869 28.7103 -34.7731 -13.1429 -61.0818 -3.9497 32.7955 5.5148 0.0000 33.7511 2.0310 -17.5842 6.6948 33.1476 -0.0000 -26.2537 9.7116 11.1598 27.1119 -29.7935 7.6023 -28.5435 -19.2828 -0.0000 -6.8825 -0.1651 -1.3852 -6.7960 32.8623 0.0000 24.3270 2.4098 -14.0115 -2.3762
-3.5452 36.8915 5.2474 -3.9967 4.6217 -1.9936 9.3208 -3.8668 -5.4304 -2.0069 0.0000 -0.0000 -2.8787 -15.2077 17.4077 9.1547 -0.0000 -0.0000 10.1835 7.0726 8.8440 -4.9649 0.0000 -0.0000 -5.6945 17.4361 -15.0293 16.1563 -0.0000 -0.0000 9.5320 3.7544 2.9865 28.7114 -34.7797 -13.1425 -61.0904 -3.9534 32.7876 5.5310 -0.0000 33.7648 2.0469 -17.5799 6.7485 33.1476 -0.0000 -26.2537 9.7086 11.1516 27.1083 -29.7866 7.5913 -28.5405 -19.3029 0.0000 -6.8647 -0.1662 -1.4074 -6.7371 32.8623 0.0000 24.3270 2.4297 -14.0077 -2.3749
-3.5443 36.8915 5.2464 -3.9994 4.6218 -1.9912 9.3131 -3.8774 -5.4341 -1.9913 0.0000 -0.0000 -2.8882 -15.1988 17.4007 9.1574 -0.0000 -0.0000 10.1824 7.0721 8.8419 -4.9609 0.0000 -0.0000 -5.6994 17.4359 -15.0108 16.1884 -0.0000 -0.0000 9.5352 3.7406 2.9809 28.7144 -34.7765 -13.1361 -61.1137 -3.9427 32.7763 5.5293 0.0000 33.7808 2.0513 -17.5591 6.7706 33.1476 -0.0000 -26.2537 9.7054 11.1569 27.1088 -29.7842 7.5855 -28.5433 -19.3160 0.0000 -6.8893 -0.1668 -1.3872 -6.8556 32.8623 0.0000 24.3270 2.4407 -14.0078 -2.3747
-3.5444 36.8913 5.2464 -4.0006 4.6226 -1.9915 9.3104 -3.8808 -5.4340 -1.9825 0.0000 -0.0000 -2.8931 -15.1924 17.3950 9.1804 -0.0000 -0.0000 10.1835 7.0645 8.8461 -4.9580 0.0000 -0.0000 -5.7050 17.4188 -15.0056 16.1872 -0.0000 -0.0000 9.5299 3.7342 2.9757 28.7148 -34.7788 -13.1386 -61.1107 -3.9368 32.7752 5.5326 0.0000 33.7696 2.0474 -17.5578 6.7584 33.1476 -0.0000 -26.2537 9.7052 11.1571 27.1140 -29.7846 7.5721 -28.5473 -19.3219 0.0000 -6.8801 -0.1644 -1.3682 -6.8523 32.8623 0.0000 24.3270 2.4618 -14.0218 -2.3716
-3.5454 36.8912 5.2488 -4.0179 4.6319 -1.9925 9.3338 -3.8874 -5.4276 -1.9831 0.0000 -0.0000 -2.9000 -15.2002 17.4122 9.1558 -0.0000 -0.0000 10.2064 7.0574 8.8509 -4.9606 0.0000 -0.0000 -5.7063 17.4270 -15.0373 16.1510 -0.0000 -0.0000 9.5417 3.7158 2.9689 28.7014 -34.7640 -13.1479 -61.0928 -3.9420 32.7672 5.5351 0.0000 33.7296 2.0244 -17.5159 6.6983 33.1476 -0.0000 -26.2537 9.6983 11.1531 27.1278 -29.7654 7.5663 -28.5524 -19.3252 0.0000 -6.9014 -0.1637 -1.3641 -6.8437 32.8623 0.0000 24.3270 2.4808 -14.0543 -2.3650
-3.5429 36.8912 5.2471 -4.0167 4.6306 -1.9883 9.3227 -3.8781 -5.4363 -1.9688 0.0000 -0.0000 -2.9020 -15.2097 17.4154 9.1757 -0.0000 -0.0000 10.2059 7.0430 8.8430 -4.9595 0.0000 -0.0000 -5.7078 17.4405 -15.0079 16.1798 -0.0000 -0.0000 9.5421 3.7127 2.9705 28.6812 -34.7790 -13.1730 -61.0748 -3.9438 32.7829 5.5609 0.0000 33.7614 2.0062 -17.5789 6.6158 33.1476 -0.0000 -26.2537 9.6972 11.1570 27.1155 -29.7726 7.5446 -28.5569 -19.3202 0.0000 -6.8953 -0.1652 -1.3828 -6.8132 32.8623 0.0000 24.3270 2.4876 -14.0318 -2.3629
